 <svg id="Capa_1" enable-background="new 0 0 512 512" height="60" viewBox="0 0 512 512" width="60" xmlns="http://www.w3.org/2000/svg"><g><path d="m493.849 241.645c0-.001-20.696-6.262-35.904-10.862-2.337-18.908-7.261-37.014-14.418-53.948l25.634-27.327c4.404-4.698 5.432-11.894 2.046-17.758-3.385-5.864-10.132-8.572-16.401-7.106 0-.001-21.068 4.928-36.539 8.548-11.285-14.888-24.571-28.174-39.459-39.459l8.549-36.539c1.465-6.27-1.243-13.017-7.107-16.402-5.864-3.386-13.061-2.358-17.757 2.047-.001 0-15.743 14.767-27.328 25.634-16.934-7.157-35.04-12.081-53.948-14.418l-10.861-35.904c-1.866-6.162-7.585-10.651-14.356-10.651s-12.49 4.489-14.354 10.651c-.001 0-6.262 20.696-10.862 35.904-18.908 2.337-37.014 7.261-53.948 14.418l-27.327-25.634c-4.698-4.404-11.894-5.432-17.758-2.046-5.864 3.385-8.572 10.132-7.106 16.401-.001 0 4.928 21.068 8.548 36.539-14.888 11.285-28.174 24.571-39.459 39.459l-36.539-8.549c-6.27-1.465-13.016 1.243-16.402 7.107s-2.358 13.061 2.047 17.757c0 .001 14.766 15.743 25.633 27.328-7.157 16.934-12.081 35.04-14.418 53.948l-35.904 10.861c-6.162 1.866-10.651 7.585-10.651 14.356s4.489 12.489 10.651 14.354c0 .001 20.696 6.262 35.904 10.862 2.337 18.908 7.261 37.014 14.418 53.948l-25.634 27.327c-4.404 4.698-5.432 11.894-2.046 17.758s10.132 8.572 16.401 7.106c0 .001 21.068-4.928 36.539-8.548 11.285 14.888 24.571 28.174 39.459 39.459l-8.549 36.539c-1.465 6.27 1.243 13.016 7.107 16.402s13.061 2.358 17.757-2.047c.001 0 15.743-14.767 27.328-25.634 16.934 7.157 35.04 12.081 53.948 14.418l10.861 35.904c1.866 6.163 7.585 10.651 14.356 10.651s12.49-4.489 14.354-10.651c.001 0 6.262-20.696 10.862-35.904 18.908-2.337 37.014-7.261 53.948-14.418l27.327 25.634c4.698 4.404 11.894 5.432 17.758 2.046 5.864-3.385 8.572-10.132 7.106-16.401.001 0-4.928-21.067-8.548-36.539 14.888-11.285 28.174-24.571 39.459-39.459l36.539 8.549c6.27 1.465 13.016-1.243 16.402-7.107s2.358-13.061-2.047-17.757c0-.001-14.767-15.743-25.634-27.328 7.157-16.934 12.081-35.04 14.418-53.948l35.904-10.861c6.163-1.866 10.651-7.584 10.651-14.356.001-6.77-4.488-12.489-10.65-14.354zm-237.849 157.855c-79.253 0-143.5-64.247-143.5-143.5s64.247-143.5 143.5-143.5 143.5 64.247 143.5 143.5-64.247 143.5-143.5 143.5z" fill="#b5cdff"/><path d="m256 82.5c-95.821 0-173.5 77.679-173.5 173.5 0 95.822 77.679 173.5 173.5 173.5s173.5-77.678 173.5-173.5c0-95.821-77.679-173.5-173.5-173.5zm0 302c-70.969 0-128.5-57.531-128.5-128.5s57.531-128.5 128.5-128.5 128.5 57.531 128.5 128.5-57.531 128.5-128.5 128.5z" fill="#8b9bbd"/><path d="m311.303 206.75-55.299 147.75-85.3-49.25v-98.5z" fill="#ff9457"/><path d="m341.303 206.75h-85.299l55.299 115.821 30-17.321z" fill="#ff6145"/><path d="m256.004 206.75v147.75l55.299-31.929v-98.5z" fill="#ff7e4f"/><path d="m341.304 206.75-42.65 24.63h-70.3l-15-49.26 42.65-24.62z" fill="#ff9457"/><path d="m298.654 231.38-42.65 24.62-85.3-49.25 42.65-24.63z" fill="#ffae6b"/><path d="m166.946 311.745 85.304 49.25c1.16.67 2.455 1.005 3.75 1.005s2.59-.335 3.75-1.005l85.304-49.25c2.32-1.34 3.75-3.815 3.75-6.495v-98.5c0-2.68-1.43-5.155-3.75-6.495l-85.304-49.25c-2.32-1.34-5.18-1.34-7.5 0l-85.304 49.25c-2.32 1.34-3.75 3.815-3.75 6.495v98.5c0 2.68 1.43 5.155 3.75 6.495zm11.25-92.005 70.304 40.59v81.18l-70.304-40.59zm77.804 27.6-70.304-40.59 27.652-15.965 70.304 40.59zm7.5 94.17v-81.18l70.304-40.59v81.18zm-7.5-175.35 70.304 40.59-27.652 15.965-70.304-40.59z"/><path d="m256 392c74.991 0 136-61.009 136-136s-61.009-136-136-136-136 61.009-136 136 61.009 136 136 136zm0-257c66.72 0 121 54.28 121 121s-54.28 121-121 121-121-54.28-121-121 54.28-121 121-121z"/><path d="m496.021 234.513c-1.082-.428-2.282-.737-3.472-1.097l-27.819-8.416c-2.352-15.967-6.525-31.584-12.439-46.545l22.342-23.817c6.829-7.285 8.063-17.989 3.07-26.638-4.994-8.648-14.876-12.933-24.597-10.658-.813.123-1.555.361-2.181.508l-29.684 6.944c-10.016-12.599-21.435-24.017-34.035-34.035l7.454-31.858c2.272-9.724-2.012-19.611-10.66-24.604-8.65-4.995-19.326-3.729-26.608 3.103-.879.707-1.735 1.568-2.67 2.446l-21.175 19.863c-14.963-5.914-30.58-10.087-46.547-12.439l-9.466-31.292c-2.894-9.557-11.548-15.978-21.534-15.978-9.987 0-18.604 6.433-21.497 15.99-.352.898-.595 1.833-.858 2.704l-8.645 28.576c-15.967 2.352-31.584 6.525-46.545 12.439l-23.817-22.342c-7.284-6.829-17.988-8.062-26.637-3.07-8.65 4.994-12.934 14.882-10.659 24.605.08.297.143.61.218.935l7.234 30.922c-12.599 10.017-24.018 21.436-34.035 34.035l-31.858-7.454c-9.724-2.271-19.61 2.013-24.604 10.661-4.993 8.649-3.727 19.325 3.104 26.608.707.879 1.568 1.735 2.446 2.67l19.863 21.175c-5.915 14.962-10.088 30.579-12.44 46.546l-31.292 9.466c-9.557 2.894-15.978 11.548-15.978 21.534 0 9.988 6.432 18.604 15.99 21.497.898.352 1.832.595 2.704.858l28.576 8.645c2.352 15.967 6.525 31.584 12.439 46.546l-22.342 23.817c-6.829 7.284-8.063 17.989-3.07 26.637 4.994 8.649 14.882 12.935 24.604 10.659l-.015-.064c1.042-.176 2.207-.448 3.549-.762l28.323-6.626c10.017 12.6 21.435 24.018 34.035 34.035l-7.454 31.858c-2.272 9.723 2.012 19.611 10.66 24.604s19.324 3.728 26.608-3.103c.879-.707 1.735-1.568 2.671-2.446l21.175-19.863c14.962 5.914 30.579 10.087 46.546 12.439l9.466 31.293c2.895 9.555 11.549 15.976 21.535 15.976 9.988 0 18.609-6.431 21.501-15.988.311-.797.518-1.598.732-2.304l8.767-28.978c15.967-2.352 31.584-6.525 46.546-12.439l23.817 22.342c7.285 6.83 17.991 8.063 26.637 3.07 8.65-4.994 12.901-14.874 10.626-24.597-.123-.814-.329-1.554-.476-2.181l-6.944-29.684c12.599-10.016 24.017-21.435 34.035-34.035l31.858 7.454c9.719 2.27 19.611-2.012 24.604-10.66 4.994-8.65 3.759-19.354-3.072-26.638-.218-.216-.428-.457-.655-.699l-21.684-23.118c5.914-14.961 10.087-30.578 12.439-46.546l31.292-9.466c9.556-2.893 15.977-11.547 15.977-21.533 0-9.987-6.421-18.594-15.979-21.487zm-4.344 28.664-35.903 10.861c-2.841.859-4.908 3.313-5.272 6.259-2.214 17.914-6.885 35.392-13.883 51.948-1.155 2.732-.591 5.888 1.438 8.051 10.758 11.468 25.337 27.011 25.621 27.314 2.252 2.402 2.673 6.052 1.035 8.889-1.639 2.838-5.011 4.297-8.198 3.554l-36.539-8.549c-2.883-.675-5.896.411-7.686 2.772-10.876 14.349-23.666 27.138-38.013 38.013-2.361 1.79-3.447 4.801-2.772 7.686l2.582 11.036c2.939 12.562 5.82 24.879 5.957 25.466.754 3.226-.706 6.597-3.544 8.235-2.838 1.637-6.489 1.218-8.876-1.021l-27.327-25.634c-2.164-2.029-5.32-2.593-8.051-1.438-16.557 6.998-34.035 11.669-51.948 13.883-2.946.364-5.399 2.431-6.259 5.271l-2.788 9.217c-3.914 12.938-7.912 26.152-8.065 26.658-.958 3.163-3.909 5.352-7.186 5.352s-6.229-2.189-7.177-5.322l-10.861-35.904c-.859-2.841-3.313-4.908-6.259-5.272-17.913-2.214-35.391-6.885-51.948-13.883-.942-.398-1.934-.592-2.918-.592-1.871 0-3.715.7-5.133 2.03-11.451 10.741-26.965 25.295-27.311 25.617-2.405 2.256-6.056 2.676-8.893 1.038-2.838-1.639-4.299-5.011-3.554-8.198l8.549-36.539c.675-2.884-.411-5.896-2.772-7.686-14.348-10.875-27.137-23.665-38.013-38.013-1.79-2.361-4.805-3.447-7.686-2.772-15.325 3.585-36.14 8.456-36.523 8.544-3.205.75-6.576-.711-8.214-3.549-1.638-2.837-1.218-6.488 1.021-8.876l25.634-27.327c2.029-2.164 2.593-5.319 1.438-8.051-6.999-16.557-11.669-34.035-13.883-51.948-.364-2.945-2.431-5.399-5.271-6.259l-5.758-1.742c-14.006-4.237-29.739-8.997-30.124-9.114-3.155-.954-5.344-3.905-5.344-7.182 0-3.276 2.189-6.228 5.323-7.177l35.903-10.861c2.841-.859 4.907-3.313 5.271-6.259 2.214-17.914 6.885-35.391 13.883-51.948 1.155-2.732.591-5.888-1.438-8.051-10.741-11.451-25.294-26.965-25.617-27.311-2.256-2.405-2.676-6.056-1.039-8.893 1.638-2.838 5.009-4.298 8.198-3.555l36.539 8.549c2.881.675 5.896-.411 7.686-2.772 10.875-14.348 23.665-27.137 38.013-38.013 2.361-1.79 3.447-4.801 2.772-7.686-3.578-15.291-8.435-36.05-8.542-36.516-.751-3.212.709-6.583 3.547-8.221 2.837-1.639 6.488-1.218 8.876 1.021l27.327 25.634c2.163 2.028 5.318 2.592 8.051 1.438 16.557-6.998 34.035-11.669 51.948-13.883 2.946-.364 5.399-2.431 6.259-5.271l1.742-5.758c4.237-14.006 8.997-29.739 9.114-30.124.956-3.154 3.907-5.343 7.184-5.343s6.229 2.19 7.177 5.323l10.861 35.903c.859 2.841 3.313 4.908 6.259 5.272 17.913 2.214 35.391 6.885 51.948 13.883 2.732 1.154 5.888.591 8.051-1.438 11.451-10.741 26.965-25.295 27.311-25.617 2.404-2.256 6.054-2.677 8.894-1.038 2.837 1.638 4.299 5.01 3.554 8.197l-8.549 36.539c-.675 2.884.411 5.896 2.772 7.686 14.349 10.876 27.138 23.666 38.013 38.013 1.789 2.361 4.801 3.445 7.686 2.772l11.036-2.582c12.588-2.945 24.931-5.833 25.47-5.958 3.224-.752 6.593.708 8.231 3.544 1.639 2.838 1.218 6.489-1.021 8.877l-25.634 27.327c-2.029 2.164-2.593 5.319-1.438 8.051 6.998 16.556 11.669 34.034 13.883 51.948.364 2.946 2.431 5.399 5.271 6.259 15.074 4.56 35.541 10.752 35.89 10.858 3.147.952 5.336 3.903 5.336 7.18-.001 3.278-2.19 6.23-5.324 7.178z"/><path d="m256 75c-41.641 0-82.3 14.494-114.489 40.813-3.207 2.622-3.681 7.347-1.059 10.554 2.622 3.206 7.346 3.68 10.554 1.059 29.517-24.135 66.805-37.426 104.994-37.426 91.533 0 166 74.467 166 166s-74.467 166-166 166-166-74.467-166-166c0-39.884 14.354-78.438 40.417-108.561 2.71-3.132 2.368-7.869-.765-10.579-3.132-2.71-7.868-2.368-10.579.765-28.421 32.847-44.073 74.887-44.073 118.375 0 99.804 81.196 181 181 181s181-81.196 181-181-81.196-181-181-181z"/><path d="m166.946 311.745 85.304 49.25c1.16.67 2.455 1.005 3.75 1.005s2.59-.335 3.75-1.005l85.304-49.25c2.32-1.34 3.75-3.815 3.75-6.495v-98.5c0-2.68-1.43-5.155-3.75-6.495l-85.304-49.25c-2.32-1.34-5.18-1.34-7.5 0l-85.304 49.25c-2.32 1.34-3.75 3.815-3.75 6.495v98.5c0 2.68 1.43 5.155 3.75 6.495zm11.25-92.005 70.304 40.59v81.18l-70.304-40.59zm77.804 27.6-70.304-40.59 27.652-15.965 70.304 40.59zm7.5 94.17v-81.18l70.304-40.59v81.18zm-7.5-175.35 70.304 40.59-27.652 15.965-70.304-40.59z"/><path d="m256 392c74.991 0 136-61.009 136-136s-61.009-136-136-136-136 61.009-136 136 61.009 136 136 136zm0-257c66.72 0 121 54.28 121 121s-54.28 121-121 121-121-54.28-121-121 54.28-121 121-121z"/><path d="m496.021 234.513c-1.082-.428-2.282-.737-3.472-1.097l-27.819-8.416c-2.352-15.967-6.525-31.584-12.439-46.545l22.342-23.817c6.829-7.285 8.063-17.989 3.07-26.638-4.994-8.648-14.876-12.933-24.597-10.658-.813.123-1.555.361-2.181.508l-29.684 6.944c-10.016-12.599-21.435-24.017-34.035-34.035l7.454-31.858c2.272-9.724-2.012-19.611-10.66-24.604-8.65-4.995-19.326-3.729-26.608 3.103-.879.707-1.735 1.568-2.67 2.446l-21.175 19.863c-14.963-5.914-30.58-10.087-46.547-12.439l-9.466-31.292c-2.894-9.557-11.548-15.978-21.534-15.978-9.987 0-18.604 6.433-21.497 15.99-.352.898-.595 1.833-.858 2.704l-8.645 28.576c-15.967 2.352-31.584 6.525-46.545 12.439l-23.817-22.342c-7.284-6.829-17.988-8.062-26.637-3.07-8.65 4.994-12.934 14.882-10.659 24.605.08.297.143.61.218.935l7.234 30.922c-12.599 10.017-24.018 21.436-34.035 34.035l-31.858-7.454c-9.724-2.271-19.61 2.013-24.604 10.661-4.993 8.649-3.727 19.325 3.104 26.608.707.879 1.568 1.735 2.446 2.67l19.863 21.175c-5.915 14.962-10.088 30.579-12.44 46.546l-31.292 9.466c-9.557 2.894-15.978 11.548-15.978 21.534 0 9.988 6.432 18.604 15.99 21.497.898.352 1.832.595 2.704.858l28.576 8.645c2.352 15.967 6.525 31.584 12.439 46.546l-22.342 23.817c-6.829 7.284-8.063 17.989-3.07 26.637 4.994 8.649 14.882 12.935 24.604 10.659l-.015-.064c1.042-.176 2.207-.448 3.549-.762l28.323-6.626c10.017 12.6 21.435 24.018 34.035 34.035l-7.454 31.858c-2.272 9.723 2.012 19.611 10.66 24.604s19.324 3.728 26.608-3.103c.879-.707 1.735-1.568 2.671-2.446l21.175-19.863c14.962 5.914 30.579 10.087 46.546 12.439l9.466 31.293c2.895 9.555 11.549 15.976 21.535 15.976 9.988 0 18.609-6.431 21.501-15.988.311-.797.518-1.598.732-2.304l8.767-28.978c15.967-2.352 31.584-6.525 46.546-12.439l23.817 22.342c7.285 6.83 17.991 8.063 26.637 3.07 8.65-4.994 12.901-14.874 10.626-24.597-.123-.814-.329-1.554-.476-2.181l-6.944-29.684c12.599-10.016 24.017-21.435 34.035-34.035l31.858 7.454c9.719 2.27 19.611-2.012 24.604-10.66 4.994-8.65 3.759-19.354-3.072-26.638-.218-.216-.428-.457-.655-.699l-21.684-23.118c5.914-14.961 10.087-30.578 12.439-46.546l31.292-9.466c9.556-2.893 15.977-11.547 15.977-21.533 0-9.987-6.421-18.594-15.979-21.487zm-4.344 28.664-35.903 10.861c-2.841.859-4.908 3.313-5.272 6.259-2.214 17.914-6.885 35.392-13.883 51.948-1.155 2.732-.591 5.888 1.438 8.051 10.758 11.468 25.337 27.011 25.621 27.314 2.252 2.402 2.673 6.052 1.035 8.889-1.639 2.838-5.011 4.297-8.198 3.554l-36.539-8.549c-2.883-.675-5.896.411-7.686 2.772-10.876 14.349-23.666 27.138-38.013 38.013-2.361 1.79-3.447 4.801-2.772 7.686l2.582 11.036c2.939 12.562 5.82 24.879 5.957 25.466.754 3.226-.706 6.597-3.544 8.235-2.838 1.637-6.489 1.218-8.876-1.021l-27.327-25.634c-2.164-2.029-5.32-2.593-8.051-1.438-16.557 6.998-34.035 11.669-51.948 13.883-2.946.364-5.399 2.431-6.259 5.271l-2.788 9.217c-3.914 12.938-7.912 26.152-8.065 26.658-.958 3.163-3.909 5.352-7.186 5.352s-6.229-2.189-7.177-5.322l-10.861-35.904c-.859-2.841-3.313-4.908-6.259-5.272-17.913-2.214-35.391-6.885-51.948-13.883-.942-.398-1.934-.592-2.918-.592-1.871 0-3.715.7-5.133 2.03-11.451 10.741-26.965 25.295-27.311 25.617-2.405 2.256-6.056 2.676-8.893 1.038-2.838-1.639-4.299-5.011-3.554-8.198l8.549-36.539c.675-2.884-.411-5.896-2.772-7.686-14.348-10.875-27.137-23.665-38.013-38.013-1.79-2.361-4.805-3.447-7.686-2.772-15.325 3.585-36.14 8.456-36.523 8.544-3.205.75-6.576-.711-8.214-3.549-1.638-2.837-1.218-6.488 1.021-8.876l25.634-27.327c2.029-2.164 2.593-5.319 1.438-8.051-6.999-16.557-11.669-34.035-13.883-51.948-.364-2.945-2.431-5.399-5.271-6.259l-5.758-1.742c-14.006-4.237-29.739-8.997-30.124-9.114-3.155-.954-5.344-3.905-5.344-7.182 0-3.276 2.189-6.228 5.323-7.177l35.903-10.861c2.841-.859 4.907-3.313 5.271-6.259 2.214-17.914 6.885-35.391 13.883-51.948 1.155-2.732.591-5.888-1.438-8.051-10.741-11.451-25.294-26.965-25.617-27.311-2.256-2.405-2.676-6.056-1.039-8.893 1.638-2.838 5.009-4.298 8.198-3.555l36.539 8.549c2.881.675 5.896-.411 7.686-2.772 10.875-14.348 23.665-27.137 38.013-38.013 2.361-1.79 3.447-4.801 2.772-7.686-3.578-15.291-8.435-36.05-8.542-36.516-.751-3.212.709-6.583 3.547-8.221 2.837-1.639 6.488-1.218 8.876 1.021l27.327 25.634c2.163 2.028 5.318 2.592 8.051 1.438 16.557-6.998 34.035-11.669 51.948-13.883 2.946-.364 5.399-2.431 6.259-5.271l1.742-5.758c4.237-14.006 8.997-29.739 9.114-30.124.956-3.154 3.907-5.343 7.184-5.343s6.229 2.19 7.177 5.323l10.861 35.903c.859 2.841 3.313 4.908 6.259 5.272 17.913 2.214 35.391 6.885 51.948 13.883 2.732 1.154 5.888.591 8.051-1.438 11.451-10.741 26.965-25.295 27.311-25.617 2.404-2.256 6.054-2.677 8.894-1.038 2.837 1.638 4.299 5.01 3.554 8.197l-8.549 36.539c-.675 2.884.411 5.896 2.772 7.686 14.349 10.876 27.138 23.666 38.013 38.013 1.789 2.361 4.801 3.445 7.686 2.772l11.036-2.582c12.588-2.945 24.931-5.833 25.47-5.958 3.224-.752 6.593.708 8.231 3.544 1.639 2.838 1.218 6.489-1.021 8.877l-25.634 27.327c-2.029 2.164-2.593 5.319-1.438 8.051 6.998 16.556 11.669 34.034 13.883 51.948.364 2.946 2.431 5.399 5.271 6.259 15.074 4.56 35.541 10.752 35.89 10.858 3.147.952 5.336 3.903 5.336 7.18-.001 3.278-2.19 6.23-5.324 7.178z"/><path d="m256 75c-41.641 0-82.3 14.494-114.489 40.813-3.207 2.622-3.681 7.347-1.059 10.554 2.622 3.206 7.346 3.68 10.554 1.059 29.517-24.135 66.805-37.426 104.994-37.426 91.533 0 166 74.467 166 166s-74.467 166-166 166-166-74.467-166-166c0-39.884 14.354-78.438 40.417-108.561 2.71-3.132 2.368-7.869-.765-10.579-3.132-2.71-7.868-2.368-10.579.765-28.421 32.847-44.073 74.887-44.073 118.375 0 99.804 81.196 181 181 181s181-81.196 181-181-81.196-181-181-181z"/></g></svg>